<svg width="24" height="24" viewBox="0 0 24 24" fill="none" xmlns="http://www.w3.org/2000/svg">
<path d="M20.3709 5.04336L22.7072 2.70706L21.293 1.29285L18.9567 3.62915C15.7901 1.15915 11.2055 1.38042 8.29296 4.29292L3.00011 9.58577L1.70718 8.29285L0.292969 9.70706L4.58588 14L4.29295 14.2929C2.79786 15.788 2.79786 18.212 4.29295 19.7071C5.78805 21.2022 8.21207 21.2022 9.70717 19.7071L10.0001 19.4142L14.293 23.7071L15.7072 22.2928L14.4143 21L19.7072 15.7071C22.6197 12.7946 22.8409 8.20992 20.3709 5.04336ZM5.70717 15.7071L6.00009 15.4142L8.58588 18L8.29295 18.2929C7.57891 19.0069 6.42121 19.0069 5.70717 18.2929C4.99312 17.5788 4.99312 16.4212 5.70717 15.7071ZM9.70718 5.70713C12.0781 3.33623 15.9221 3.33623 18.293 5.70713C20.6639 8.07803 20.6639 11.922 18.293 14.2929L13.0001 19.5858L4.41432 11L9.70718 5.70713Z" fill="white"/>
</svg>
