<svg width="50" height="34" viewBox="0 0 50 34" fill="none" xmlns="http://www.w3.org/2000/svg">
<path fill-rule="evenodd" clip-rule="evenodd" d="M0 18.2857H31.8182V34H0V18.2857ZM36.3636 18.2857H50V34H36.3636V18.2857ZM34.0909 13.7143C37.8636 13.7143 40.8864 10.6514 40.8864 6.85714C40.8864 3.06286 37.8636 0 34.0909 0C30.3182 0 27.2727 3.06286 27.2727 6.85714C27.2727 10.6514 30.3182 13.7143 34.0909 13.7143ZM15.9091 13.7143C19.6818 13.7143 22.7045 10.6514 22.7045 6.85714C22.7045 3.06286 19.6818 0 15.9091 0C12.1364 0 9.09091 3.06286 9.09091 6.85714C9.09091 10.6514 12.1364 13.7143 15.9091 13.7143Z" fill="white"/>
</svg>
